<?xml version="1.0" standalone="no"?>
<!DOCTYPE svg PUBLIC "-//W3C//DTD SVG 20010904//EN"
 "http://www.w3.org/TR/2001/REC-SVG-20010904/DTD/svg10.dtd">
<svg version="1.0" xmlns="http://www.w3.org/2000/svg"
 width="700.000000pt" height="700.000000pt" viewBox="0 0 700.000000 700.000000"
 preserveAspectRatio="xMidYMid meet">
<metadata>
Created by potrace 1.14, written by Peter Selinger 2001-2017
</metadata>
<g transform="translate(0.000000,700.000000) scale(0.100000,-0.100000)"
fill="#000000" stroke="none">
<path d="M5783 5990 c-27 -11 -53 -59 -53 -98 0 -47 34 -78 149 -137 252 -129
482 -315 654 -530 27 -33 55 -68 63 -78 8 -9 14 -19 14 -21 0 -2 18 -30 39
-62 48 -72 73 -117 122 -216 42 -83 69 -109 119 -110 58 -2 110 48 110 104 0
23 -67 166 -122 263 -109 190 -322 436 -511 589 -128 104 -384 262 -478 295
-37 13 -75 13 -106 1z"/>
<path d="M5768 5573 c-46 -18 -73 -67 -64 -115 7 -39 26 -58 106 -110 208
-135 385 -320 516 -538 75 -126 136 -149 207 -79 26 27 29 35 24 74 -12 114
-256 430 -462 600 -85 71 -225 164 -260 174 -21 6 -42 4 -67 -6z"/>
<path d="M2768 5466 c-1 -2 -48 -6 -103 -9 -55 -4 -111 -9 -125 -12 -14 -3
-38 -8 -55 -11 -111 -19 -255 -69 -370 -127 -434 -217 -733 -629 -806 -1112
-14 -92 -14 -335 -1 -413 l9 -52 -84 -41 c-224 -109 -410 -328 -479 -566 -38
-129 -51 -312 -30 -423 28 -151 89 -292 173 -405 68 -90 1217 -1241 1263
-1265 73 -37 144 -41 225 -13 44 16 87 55 349 316 l299 298 286 -284 c186
-185 301 -293 330 -307 65 -33 153 -48 223 -38 127 17 116 7 826 718 377 378
660 669 668 687 14 32 12 47 -9 91 -10 21 -3 31 83 117 65 66 97 91 105 85 7
-6 33 -13 59 -16 l47 -7 160 159 c186 184 297 325 373 474 47 92 106 246 120
312 3 13 8 34 11 48 6 26 8 42 23 143 10 65 8 309 -2 372 -4 22 -9 49 -11 60
-66 398 -324 777 -681 999 -144 90 -330 162 -484 190 -19 3 -45 8 -57 10 -163
32 -413 20 -606 -30 -221 -57 -425 -166 -610 -328 l-68 -59 -42 41 c-53 51
-228 182 -243 182 -7 0 -14 3 -16 8 -5 12 -187 97 -268 125 -68 24 -133 41
-200 53 -14 3 -36 7 -50 10 -14 2 -65 7 -115 10 -49 3 -95 7 -102 9 -6 2 -13
2 -15 1z"/>
<path d="M570 4193 c-56 -22 -278 -241 -361 -359 -74 -103 -152 -240 -185
-326 -24 -60 -26 -72 -16 -107 14 -45 52 -74 98 -74 49 0 83 28 110 91 13 31
28 64 33 72 79 144 103 182 169 265 61 76 132 149 229 235 67 58 79 88 60 143
-17 50 -84 80 -137 60z"/>
<path d="M700 3786 c-88 -50 -293 -359 -307 -462 -5 -36 -1 -44 30 -77 26 -28
42 -37 67 -37 56 0 86 27 130 117 41 82 123 200 193 277 53 58 59 108 18 157
-31 36 -91 48 -131 25z"/>
</g>
</svg>
