<?xml version="1.0" standalone="no"?>
<!DOCTYPE svg PUBLIC "-//W3C//DTD SVG 20010904//EN"
 "http://www.w3.org/TR/2001/REC-SVG-20010904/DTD/svg10.dtd">
<svg version="1.0" xmlns="http://www.w3.org/2000/svg"
 width="500.000000pt" height="500.000000pt" viewBox="0 0 500.000000 500.000000"
 preserveAspectRatio="xMidYMid meet">
<metadata>
Created by potrace 1.14, written by Peter Selinger 2001-2017
</metadata>
<g transform="translate(0.000000,500.000000) scale(0.100000,-0.100000)"
fill="#000000" stroke="none">
<path d="M2387 4989 c-126 -13 -267 -77 -428 -194 -15 -11 -82 -77 -149 -147
-67 -71 -126 -128 -131 -128 -5 0 -131 60 -281 134 -150 74 -284 137 -297 141
-13 4 -76 33 -140 65 -226 111 -272 129 -298 112 -7 -4 -64 -58 -128 -120
-168 -162 -170 -188 -18 -302 48 -36 96 -74 107 -86 25 -24 91 -73 126 -93 30
-17 273 -204 312 -240 l27 -25 -110 -108 c-60 -60 -135 -144 -168 -186 -85
-112 -162 -233 -155 -244 5 -8 -144 -3 -201 8 -11 2 -48 4 -83 5 -53 1 -69 -3
-105 -26 -23 -16 -49 -38 -58 -49 -9 -12 -57 -63 -107 -115 -101 -104 -114
-133 -85 -184 20 -35 79 -58 236 -93 43 -9 80 -21 83 -25 2 -5 -2 -34 -10 -66
-17 -67 -42 -210 -53 -303 -12 -105 -6 -406 11 -512 l15 -98 -35 -77 c-91
-198 -191 -517 -235 -748 -21 -108 -19 -490 4 -579 36 -142 136 -341 216 -430
33 -35 150 -116 229 -156 171 -87 293 -111 542 -109 277 3 426 36 885 199 28
10 85 34 128 54 46 21 87 34 100 31 149 -32 456 -39 642 -14 292 39 588 138
813 273 51 31 115 68 143 81 71 36 103 99 77 149 -9 16 -5 23 18 40 51 38 112
93 157 143 43 49 44 50 72 36 39 -21 88 -9 119 28 30 36 32 49 10 94 l-16 34
71 99 c39 55 76 111 82 125 10 22 15 24 36 16 42 -16 87 12 125 78 81 140 184
428 214 603 3 14 9 50 15 80 31 171 31 490 0 672 -9 55 -8 62 26 135 35 77 45
104 118 313 99 284 135 478 135 720 0 222 -22 336 -96 498 -25 53 -113 192
-143 226 -30 33 -187 139 -246 166 -117 52 -146 62 -236 80 -136 28 -401 28
-560 0 -323 -56 -775 -224 -1028 -382 l-34 -22 6 30 c4 16 12 52 18 79 6 28
11 91 11 141 0 104 -15 145 -59 162 -41 15 -146 20 -236 11z m97 -246 c-8 -80
-38 -166 -84 -243 -46 -78 -229 -268 -240 -249 -14 22 11 65 80 139 18 19 44
47 57 61 33 36 44 88 27 128 -11 25 -19 31 -43 31 -45 0 -116 -30 -210 -89
-82 -52 -147 -81 -180 -81 -21 0 178 200 255 255 102 74 179 102 287 104 l58
1 -7 -57z m1771 40 c239 -49 440 -235 517 -478 21 -65 23 -88 23 -310 -1 -209
-3 -252 -22 -335 -30 -132 -115 -399 -142 -448 -4 -8 -22 26 -46 85 -64 166
-184 388 -287 533 -107 150 -484 506 -573 540 -11 4 -60 32 -110 61 -123 72
-232 125 -333 161 -54 20 -80 33 -71 38 71 39 395 136 514 154 120 19 436 18
530 -1z m-3228 -165 c299 -148 307 -153 268 -159 -22 -3 -61 -4 -88 -2 -40 3
-51 0 -72 -21 -20 -20 -24 -32 -20 -57 3 -18 8 -37 12 -42 13 -21 -42 18 -225
159 -64 49 -149 115 -189 145 l-71 54 36 38 c20 20 37 37 39 37 1 0 141 -69
310 -152z m-612 -2918 c50 -125 76 -180 165 -335 103 -181 170 -267 344 -441
134 -134 309 -279 359 -297 9 -4 61 -32 115 -64 114 -68 175 -97 303 -148 52
-20 95 -38 97 -40 5 -5 -222 -85 -328 -115 -172 -49 -297 -63 -515 -57 -220 5
-278 18 -402 88 -185 104 -317 296 -344 501 -15 106 -5 437 15 535 27 132 140
483 151 471 2 -2 20 -46 40 -98z"/>
</g>
</svg>
